<?xml version="1.0" standalone="no"?>
<!DOCTYPE svg PUBLIC "-//W3C//DTD SVG 20010904//EN"
 "http://www.w3.org/TR/2001/REC-SVG-20010904/DTD/svg10.dtd">
<svg version="1.0" xmlns="http://www.w3.org/2000/svg"
 width="216.000000pt" height="216.000000pt" viewBox="0 0 216.000000 216.000000"
 preserveAspectRatio="xMidYMid meet">
<metadata>
Created by potrace 1.10, written by Peter Selinger 2001-2011
</metadata>
<g transform="translate(0.000000,216.000000) scale(0.100000,-0.100000)"
fill="#cbb58b" stroke="none">
<path d="M668 1995 c-21 -24 -38 -49 -38 -57 0 -7 -18 -28 -40 -46 -37 -31
-40 -32 -40 -11 0 14 5 19 14 16 9 -4 16 3 20 16 7 28 6 77 -1 57 -3 -8 -19
-30 -35 -49 -17 -19 -27 -39 -23 -49 5 -13 -24 -52 -38 -52 -3 0 -2 20 1 45 2
25 0 45 -5 45 -5 0 -9 -10 -10 -21 -1 -12 -12 -32 -24 -45 -15 -16 -20 -30
-15 -48 5 -19 0 -29 -19 -44 -14 -11 -25 -25 -25 -31 0 -6 -4 -11 -10 -11 -16
0 -12 22 6 35 14 10 15 18 6 51 -6 24 -10 31 -11 17 -1 -12 -10 -38 -22 -57
-15 -27 -18 -39 -10 -54 8 -15 6 -23 -8 -36 -18 -16 -19 -15 -25 18 -4 19 -12
38 -18 42 -7 5 -8 3 -3 -5 4 -7 -1 -33 -10 -57 -13 -35 -14 -48 -5 -59 9 -11
8 -19 -3 -36 -15 -21 -16 -20 -36 22 -12 24 -19 36 -16 25 3 -10 0 -36 -5 -57
-8 -27 -8 -45 0 -59 13 -24 -8 -110 -21 -88 -5 7 -6 22 -3 34 3 11 -2 30 -13
43 -18 22 -18 22 -18 -32 0 -31 6 -61 14 -70 10 -13 11 -24 2 -48 -6 -17 -8
-35 -6 -39 3 -5 1 -11 -4 -14 -5 -3 -11 3 -14 14 -3 10 0 21 7 23 6 2 0 18
-18 41 -15 21 -31 35 -34 31 -3 -3 0 -11 6 -17 7 -7 12 -31 12 -54 0 -25 6
-47 15 -54 8 -7 15 -26 15 -44 l0 -31 -31 38 c-17 20 -35 37 -41 37 -6 0 -4
-8 5 -18 10 -10 17 -33 17 -50 0 -17 8 -39 19 -49 15 -15 36 -73 26 -73 -2 0
-17 14 -35 30 -35 32 -64 42 -37 12 9 -10 20 -32 23 -50 4 -17 17 -38 30 -47
15 -10 24 -25 24 -41 l0 -26 -31 26 c-35 30 -60 35 -37 9 8 -10 20 -32 27 -50
7 -18 22 -35 33 -39 15 -4 38 -40 38 -59 0 -2 -19 7 -42 20 -50 29 -73 32 -42
7 12 -9 30 -32 40 -49 10 -18 26 -33 36 -33 10 0 24 -13 33 -30 18 -35 17 -35
-21 -15 -16 8 -38 15 -49 14 -20 0 -20 -1 1 -10 11 -6 28 -24 38 -40 11 -19
25 -29 40 -29 14 0 30 -10 40 -25 21 -31 20 -38 -2 -27 -28 15 -82 22 -82 12
0 -6 5 -10 12 -10 6 0 23 -10 36 -22 17 -16 26 -19 29 -10 3 6 16 12 29 12 29
0 30 6 3 49 -34 56 -77 175 -95 262 -20 101 -15 310 11 409 34 129 119 284
214 392 61 69 190 162 289 209 92 44 117 61 134 94 10 19 10 19 -8 3 -10 -9
-32 -20 -49 -24 -16 -4 -46 -20 -65 -35 -44 -34 -83 -47 -74 -25 3 9 14 16 24
16 12 0 22 12 30 36 7 19 10 37 8 39 -1 2 -20 -16 -40 -40z m-196 -197 c-15
-15 -24 -6 -16 16 5 12 10 14 17 7 8 -8 8 -14 -1 -23z m-157 -178 c-6 -9 -9
-9 -16 1 -10 17 0 34 13 21 6 -6 7 -16 3 -22z m-55 -101 c0 -5 -4 -9 -10 -9
-5 0 -10 7 -10 16 0 8 5 12 10 9 6 -3 10 -10 10 -16z m-101 -353 c0 -14 -2
-16 -6 -6 -3 8 -10 21 -16 28 -7 9 -6 11 7 6 9 -3 16 -16 15 -28z m-4 -106 c3
-5 -1 -10 -9 -10 -9 0 -16 5 -16 10 0 6 4 10 9 10 6 0 13 -4 16 -10z m10 -120
c3 -5 1 -10 -4 -10 -6 0 -11 5 -11 10 0 6 2 10 4 10 3 0 8 -4 11 -10z m30
-120 c3 -5 2 -10 -4 -10 -5 0 -13 5 -16 10 -3 6 -2 10 4 10 5 0 13 -4 16 -10z
m40 -110 c3 -5 2 -10 -4 -10 -5 0 -13 5 -16 10 -3 6 -2 10 4 10 5 0 13 -4 16
-10z"/>
<path d="M1493 2015 c2 -16 8 -38 12 -47 11 -26 -9 -22 -41 7 -15 14 -37 25
-48 25 -12 0 -32 7 -44 16 -12 8 -22 11 -22 6 0 -18 48 -50 140 -95 292 -140
478 -399 520 -725 21 -163 -9 -340 -85 -499 -24 -51 -45 -93 -47 -93 -2 0 -44
16 -93 36 -110 44 -319 98 -447 114 -100 13 -146 8 -118 -11 12 -8 10 -9 -7
-4 -12 3 -25 1 -29 -6 -4 -8 -3 -9 4 -5 8 5 10 1 6 -9 -5 -12 -10 -13 -17 -6
-6 6 -20 11 -31 11 -13 0 -1 10 29 24 70 32 85 59 85 147 0 65 4 80 43 156 41
82 42 83 72 76 74 -19 195 1 195 32 0 18 -87 113 -111 120 -18 6 -14 13 35 65
68 74 106 151 113 227 5 59 -8 113 -27 113 -5 0 -10 -14 -10 -30 0 -78 -86
-158 -222 -206 -35 -12 -42 -11 -78 7 -93 49 -247 48 -341 0 l-40 -21 -62 21
c-123 41 -200 110 -213 192 -9 50 -21 47 -29 -7 -14 -89 36 -216 121 -306 l42
-45 -38 -23 c-49 -28 -105 -105 -87 -120 38 -30 150 -40 207 -18 11 4 28 -19
64 -88 47 -92 48 -96 41 -155 -6 -49 -4 -67 9 -86 21 -32 76 -59 154 -75 57
-12 63 -15 58 -34 -3 -12 -6 -69 -6 -128 0 -104 -1 -108 -22 -108 -21 0 -21 2
-15 130 l6 130 -30 0 c-16 0 -46 7 -67 16 -36 15 -38 15 -59 -10 -25 -29 -41
-33 -49 -11 -16 41 -78 0 -72 -47 3 -15 1 -28 -4 -28 -4 0 -8 6 -8 13 0 16
-42 57 -58 57 -6 0 -14 5 -17 11 -4 6 -1 9 6 8 8 -2 41 1 74 6 33 5 76 9 95
11 19 1 39 3 43 3 5 1 5 6 1 12 -16 26 -317 -29 -494 -90 -93 -32 -262 -103
-278 -117 -3 -2 162 -318 173 -332 1 -1 37 14 79 34 290 134 621 174 931 113
120 -24 280 -76 365 -119 35 -17 66 -28 70 -23 11 12 170 314 170 322 0 4 -12
13 -26 20 l-27 12 23 24 c13 14 29 25 37 25 7 0 13 5 13 11 0 6 -8 8 -17 5
-10 -3 -31 -8 -46 -12 -22 -5 -27 -11 -24 -26 4 -14 2 -18 -10 -14 -8 3 -17 6
-20 6 -2 0 7 14 21 31 14 17 26 35 26 40 0 5 10 9 22 9 12 0 37 17 58 40 39
42 31 51 -20 25 -34 -17 -35 -16 -18 20 6 14 19 25 29 25 11 0 26 15 38 39 11
21 28 41 37 45 9 4 14 9 11 12 -3 3 -24 -4 -47 -16 -37 -19 -42 -19 -36 -5 3
9 6 20 6 24 0 4 11 13 24 19 15 6 27 23 31 41 4 17 16 38 28 46 13 9 16 15 8
15 -8 0 -30 -12 -49 -27 l-35 -26 7 28 c4 16 16 35 26 42 10 7 22 28 25 46 4
17 14 40 23 50 26 30 0 19 -35 -15 l-33 -32 0 32 c0 21 6 35 20 42 14 7 20 21
20 43 0 18 7 43 16 55 26 37 -2 25 -35 -15 l-30 -38 -1 31 c0 17 7 37 15 44 9
7 15 29 15 54 0 23 5 47 12 54 6 6 9 14 6 18 -4 3 -19 -13 -34 -36 l-28 -42
-8 28 c-5 17 -3 33 5 42 9 12 18 122 10 122 -9 0 -33 -64 -26 -69 14 -10 12
-41 -4 -41 -10 0 -12 6 -8 20 3 11 2 20 -3 20 -15 0 -22 41 -10 60 8 12 8 29
1 57 -6 25 -7 47 -1 57 6 10 5 16 -1 16 -6 0 -16 -18 -22 -40 -7 -22 -16 -40
-21 -40 -9 0 -10 6 -14 65 -3 57 -18 122 -26 110 -3 -5 -9 -25 -13 -44 -7 -33
-8 -34 -22 -15 -7 10 -11 29 -8 41 3 13 -4 36 -16 57 -12 20 -18 43 -15 51 3
8 2 15 -3 15 -15 0 -18 -71 -4 -85 7 -8 13 -20 13 -27 0 -7 -14 3 -30 22 -16
19 -30 46 -30 60 0 14 -9 36 -20 50 -11 14 -20 34 -20 45 0 13 -3 16 -11 8
-12 -12 -1 -86 11 -78 10 6 25 -14 16 -22 -11 -11 -71 52 -68 71 2 10 -9 32
-26 50 -16 17 -32 38 -35 46 -3 9 -6 4 -6 -12 -1 -35 8 -58 24 -58 7 0 15 -7
18 -14 4 -11 1 -13 -11 -9 -33 12 -66 44 -67 65 -1 11 -14 30 -29 41 -15 11
-32 29 -37 41 -8 18 -9 16 -6 -9z m45 -67 c11 -14 10 -16 -5 -14 -10 2 -17 6
-15 9 1 4 2 12 2 19 0 6 1 9 3 7 1 -2 8 -12 15 -21z m357 -318 c3 -5 2 -10 -4
-10 -5 0 -13 5 -16 10 -3 6 -2 10 4 10 5 0 13 -4 16 -10z m-311 -52 c-3 -47
-7 -58 -33 -108 -22 -43 -97 -141 -113 -148 -20 -9 -4 -43 32 -72 22 -17 40
-38 40 -46 0 -9 5 -12 10 -9 6 3 10 -2 10 -13 0 -29 -58 -43 -130 -30 -69 13
-68 14 -123 -91 -33 -62 -39 -86 -43 -147 -6 -125 -50 -171 -151 -159 -95 11
-119 38 -120 137 -1 67 -5 84 -33 135 -18 32 -41 73 -51 92 -22 41 -38 52 -58
42 -9 -5 -46 -9 -82 -10 -109 -4 -112 35 -9 110 l40 29 -54 73 c-61 82 -93
140 -101 187 l-6 32 44 -45 c47 -47 123 -89 198 -108 43 -12 51 -11 105 15 50
24 72 28 147 28 78 0 95 -3 148 -29 33 -17 62 -26 65 -21 3 4 14 8 24 8 57 0
195 93 226 151 19 37 21 36 18 -3z m366 -54 c0 -8 -5 -12 -10 -9 -6 4 -8 11
-5 16 9 14 15 11 15 -7z m86 -231 c-10 -10 -19 5 -10 18 6 11 8 11 12 0 2 -7
1 -15 -2 -18z m24 -113 c0 -5 -4 -10 -10 -10 -5 0 -10 5 -10 10 0 6 5 10 10
10 6 0 10 -4 10 -10z m-705 -446 c22 -4 52 -8 68 -8 31 -1 35 -11 9 -25 -10
-5 -31 -42 -46 -80 -15 -39 -29 -71 -31 -71 -2 0 -2 30 -1 68 5 100 0 112 -39
109 -18 -1 -31 -5 -28 -9 6 -11 -5 -10 -28 3 -28 15 -13 30 24 24 18 -2 50 -8
72 -11z m-303 -31 c25 -23 24 -73 -1 -73 -13 0 -21 8 -23 22 -2 13 -11 24 -21
26 -16 3 -18 -4 -15 -85 3 -80 5 -88 23 -88 15 0 21 8 23 33 2 24 -1 32 -12
32 -9 0 -16 9 -16 20 0 16 7 20 35 20 l35 0 0 -53 c0 -64 -20 -97 -58 -97 -15
0 -33 4 -40 9 -19 11 -31 74 -32 153 0 58 3 69 22 82 29 21 57 20 80 -1z m185
9 c14 -9 32 -82 33 -129 0 -18 5 -33 10 -33 6 0 10 22 10 49 0 78 10 111 32
111 17 0 19 -5 14 -32 -7 -40 -21 -210 -18 -220 1 -5 -9 -8 -22 -8 -22 0 -26
6 -36 58 -6 31 -15 71 -20 87 l-8 30 -1 -36 c-1 -20 -4 -57 -7 -83 -6 -37 -11
-46 -27 -46 -17 0 -19 5 -14 38 4 20 9 79 13 130 7 90 13 102 41 84z m738 -2
c-3 -5 -11 -10 -16 -10 -6 0 -7 5 -4 10 3 6 11 10 16 10 6 0 7 -4 4 -10z
m-1251 -9 c-45 -11 -54 -19 -54 -47 0 -16 -5 -24 -12 -21 -7 2 -12 9 -11 14 1
5 -3 10 -10 11 -7 1 -24 4 -39 8 -21 5 -33 0 -61 -27 l-35 -33 19 -65 c36
-128 47 -149 85 -161 27 -9 42 -9 64 0 17 7 28 16 25 20 -6 10 16 19 32 12 7
-2 10 -8 7 -13 -3 -5 0 -9 5 -9 6 0 11 5 11 10 0 6 7 10 15 10 7 0 19 8 24 18
6 9 11 12 11 5 0 -7 12 -9 33 -7 17 2 46 4 64 4 22 0 36 7 47 22 14 19 19 19
18 -2 0 -3 19 -6 42 -8 30 -2 47 3 62 17 20 18 21 18 32 0 13 -21 47 -25 58
-8 4 8 9 8 17 0 16 -16 57 -13 64 4 5 13 8 12 20 -5 10 -14 24 -20 42 -19 14
2 36 -1 48 -5 12 -4 31 -2 43 4 16 9 22 8 26 -5 3 -8 13 -15 21 -15 8 0 12 -4
9 -9 -7 -11 13 -9 33 3 9 6 12 5 8 -1 -4 -7 12 -16 38 -24 25 -7 45 -16 45
-20 0 -17 43 6 53 29 10 21 8 27 -16 46 -24 19 -40 55 -18 42 4 -3 6 6 3 21
-4 19 -2 24 8 18 9 -5 11 -4 6 3 -4 6 0 36 9 67 14 47 14 58 3 74 -12 17 -17
18 -37 8 -17 -9 -31 -35 -51 -97 l-28 -85 1 90 c1 91 -5 117 -33 129 -8 3 7 3
35 0 82 -10 290 -70 351 -102 10 -5 30 -15 44 -21 14 -7 34 -19 45 -27 19 -14
19 -15 -10 -74 -17 -33 -33 -60 -37 -60 -5 0 -8 -7 -8 -16 0 -9 -5 -12 -12 -8
-6 4 -8 3 -4 -4 6 -10 -47 -126 -62 -136 -4 -2 -50 13 -102 35 -52 21 -103 39
-112 39 -9 0 -23 6 -30 13 -7 6 -22 13 -33 14 -11 0 -65 11 -120 23 -55 11
-122 24 -150 27 -67 7 -279 8 -335 1 -159 -21 -366 -78 -476 -130 -38 -18 -69
-27 -74 -22 -20 22 -131 245 -125 254 3 5 -1 10 -9 10 -25 0 -18 24 11 42 56
32 224 97 305 117 114 28 118 29 158 29 l35 0 -31 -7z m176 -3 c0 -7 7 -60 15
-118 18 -134 19 -130 -5 -130 -11 0 -20 6 -20 13 0 6 -7 59 -15 117 -18 134
-19 130 5 130 11 0 20 -6 20 -12z m-108 -20 c23 -18 42 -96 29 -112 -8 -9 -4
-27 14 -64 30 -63 30 -62 4 -62 -14 0 -26 13 -40 46 -21 47 -47 56 -40 13 9
-50 6 -73 -9 -77 -13 -2 -20 21 -38 111 -29 147 -29 145 11 150 17 2 37 5 43
5 5 1 17 -4 26 -10z m693 -2 c0 -1 -1 -59 -3 -129 -3 -125 -4 -128 -25 -125
-18 2 -21 8 -19 36 3 27 0 32 -17 32 -14 0 -25 -9 -31 -25 -6 -16 -17 -25 -31
-25 -13 0 -19 5 -17 13 85 226 90 237 117 230 14 -3 26 -6 26 -7z m-857 -43
c21 -18 62 -140 62 -183 0 -29 -27 -60 -52 -60 -41 0 -57 20 -83 103 -30 100
-31 111 -5 137 25 25 51 25 78 3z m982 5 c0 -7 -14 -56 -30 -108 -17 -51 -30
-95 -30 -96 0 -1 14 -5 30 -9 21 -5 30 -13 30 -26 0 -23 -4 -23 -64 -3 -37 13
-46 20 -41 33 4 9 21 62 38 119 25 80 35 102 49 102 10 0 18 -6 18 -12z m-763
-40 c-3 -7 -5 -2 -5 12 0 14 2 19 5 13 2 -7 2 -19 0 -25z m-170 0 c-3 -8 -6
-5 -6 6 -1 11 2 17 5 13 3 -3 4 -12 1 -19z m179 -33 c-3 -20 -16 -31 -16 -13
0 13 8 28 16 28 1 0 1 -7 0 -15z"/>
<path d="M1734 505 c-28 -28 -30 -32 -18 -65 11 -32 15 -35 53 -37 32 -2 43 1
47 15 3 9 11 28 17 41 9 19 9 25 -1 29 -7 2 -18 9 -25 15 -34 33 -42 33 -73 2z
m50 -10 c3 -8 16 -15 28 -15 22 -1 22 -1 4 -15 -12 -9 -17 -22 -13 -35 6 -22
-3 -26 -21 -8 -9 9 -15 9 -24 0 -18 -18 -27 -15 -21 8 3 11 0 27 -7 35 -10 13
-9 15 9 15 12 0 21 6 21 15 0 8 4 15 9 15 5 0 11 -7 15 -15z"/>
<path d="M380 502 c-29 -26 -31 -31 -20 -53 7 -13 16 -31 20 -39 4 -8 10 -14
14 -12 3 1 22 2 41 2 30 0 35 3 35 23 0 13 5 28 10 33 13 13 2 44 -15 44 -7 0
-18 7 -25 15 -17 20 -22 19 -60 -13z m54 -7 c3 -8 16 -15 28 -15 22 -1 22 -1
5 -15 -13 -9 -17 -20 -12 -34 7 -23 -4 -28 -23 -9 -8 8 -15 8 -28 -2 -14 -12
-16 -12 -12 6 1 12 -3 28 -11 37 -12 15 -11 17 8 17 12 0 21 6 21 15 0 8 4 15
9 15 5 0 11 -7 15 -15z"/>
<path  d="M743 643 c-13 -5 -7 -61 8 -78 17 -18 39 18 31 49 -8 31 -18 38 -39
29z"/>
<path d="M1431 584 c-14 -52 -14 -58 -3 -62 10 -3 27 86 18 95 -2 3 -9 -12
-15 -33z"/>
<path d="M574 596 c-10 -25 38 -160 59 -164 23 -5 21 26 -6 107 -22 65 -42 86
-53 57z"/>
<path d="M980 1983 c-231 -36 -458 -166 -584 -334 -133 -177 -188 -340 -188
-559 0 -90 6 -136 25 -210 25 -95 62 -188 90 -225 29 -38 25 -10 -8 58 -19 37
-31 67 -28 67 3 0 1 6 -5 13 -6 7 -20 53 -33 102 -38 156 -21 398 36 517 14
28 25 57 25 64 0 7 10 23 22 35 13 12 16 18 8 14 -13 -7 -13 -6 0 11 9 10 22
31 30 47 7 15 39 55 71 88 31 33 57 63 58 66 1 24 279 183 320 183 9 0 21 4
27 9 9 10 32 15 149 30 125 17 293 -2 415 -47 49 -18 173 -85 190 -102 3 -3
28 -23 55 -44 60 -47 70 -58 115 -116 19 -25 37 -47 40 -50 5 -5 12 -17 58
-99 40 -73 58 -119 68 -179 3 -15 8 -36 11 -47 16 -48 22 -227 11 -315 -9 -71
-48 -190 -87 -262 -17 -33 -26 -60 -20 -64 14 -8 84 147 110 246 29 109 32
308 6 414 -73 293 -274 526 -550 635 -124 49 -317 73 -437 54z"/>
<path d="M1010 1750 c-14 -4 -39 -8 -57 -9 -18 -1 -58 -12 -90 -27 -32 -14
-58 -24 -58 -23 0 6 -122 -77 -132 -90 -21 -29 -5 -24 45 13 225 165 523 165
755 -1 27 -19 51 -33 53 -30 6 6 -32 47 -44 47 -6 0 -15 6 -19 13 -10 16 -131
77 -152 77 -10 0 -21 4 -26 9 -21 20 -229 36 -275 21z"/>
<path d="M791 1616 c-7 -8 -11 -34 -9 -58 2 -35 7 -43 23 -43 14 0 21 7 22 25
1 14 0 18 -3 8 -10 -33 -24 -18 -24 25 1 38 2 40 14 24 8 -10 17 -14 20 -8 3
5 -1 17 -10 25 -19 19 -19 19 -33 2z"/>
<path d="M862 1609 c-15 -39 -21 -99 -11 -99 5 0 9 7 9 15 0 8 5 15 10 15 6 0
10 -7 10 -15 0 -8 5 -15 11 -15 7 0 9 17 4 53 -8 62 -21 80 -33 46z m15 -51
c-3 -7 -5 -2 -5 12 0 14 2 19 5 13 2 -7 2 -19 0 -25z"/>
<path d="M918 1622 c-2 -4 -1 -32 3 -62 3 -30 6 -42 7 -27 2 31 22 28 22 -4 0
-10 4 -19 9 -19 4 0 8 23 7 51 -1 44 -4 53 -23 60 -12 4 -24 5 -25 1z m32 -32
c0 -11 -4 -20 -10 -20 -5 0 -10 9 -10 20 0 11 5 20 10 20 6 0 10 -9 10 -20z"/>
<path d="M988 1623 c-2 -4 -1 -33 2 -63 l5 -55 7 55 c4 30 4 58 -1 63 -5 5
-10 5 -13 0z"/>
<path d="M1032 1595 c-2 -31 -5 -37 -13 -25 -7 11 -8 6 -3 -20 13 -69 26 -53
21 26 -2 43 -4 48 -5 19z"/>
<path d="M1060 1572 c0 -37 4 -62 11 -62 6 0 9 20 6 55 -5 77 -17 81 -17 7z"/>
<path d="M1095 1589 c9 -61 15 -79 25 -79 10 0 16 18 25 79 5 31 4 42 -4 37
-6 -4 -11 -23 -11 -42 0 -19 -4 -34 -10 -34 -5 0 -10 15 -10 34 0 19 -5 38
-11 42 -8 5 -9 -6 -4 -37z"/>
<path d="M1172 1618 c-17 -17 -15 -83 3 -98 24 -20 37 1 33 55 -3 50 -15 64
-36 43z m28 -48 c0 -22 -4 -40 -10 -40 -5 0 -10 18 -10 40 0 22 5 40 10 40 6
0 10 -18 10 -40z"/>
<path d="M1230 1569 c0 -37 4 -59 11 -59 6 0 9 9 6 20 -3 11 -2 22 3 25 4 3
11 -6 14 -20 4 -14 11 -25 17 -25 6 0 7 5 3 12 -4 6 -6 30 -6 53 2 38 -1 43
-23 47 -24 5 -25 4 -25 -53z m32 9 c-9 -9 -12 -7 -12 12 0 19 3 21 12 12 9 -9
9 -15 0 -24z"/>
<path d="M1300 1568 c0 -55 1 -58 25 -58 14 0 25 5 25 10 0 6 -7 10 -15 10
-18 0 -20 26 -2 34 10 5 10 7 0 12 -19 8 -16 34 4 34 22 0 8 13 -17 15 -18 1
-20 -5 -20 -57z"/>
<path d="M1371 1617 c-16 -16 -14 -28 11 -54 24 -26 18 -44 -8 -22 -14 12 -16
11 -13 -6 6 -27 43 -26 47 1 2 11 -4 27 -13 34 -8 7 -15 19 -15 27 0 13 3 13
15 3 12 -10 15 -10 15 3 0 19 -24 29 -39 14z"/>
<path d="M537 1446 c-20 -30 -46 -85 -58 -123 -12 -37 -24 -72 -28 -78 -7 -12
-8 -21 -11 -155 -2 -66 1 -113 8 -127 7 -12 12 -31 12 -42 0 -12 4 -29 8 -39
5 -9 21 -42 36 -74 15 -31 37 -65 48 -75 25 -21 24 -19 -24 73 -51 99 -70 180
-69 294 1 134 32 238 106 358 38 62 14 51 -28 -12z"/>
<path d="M1610 1489 c0 -6 8 -23 19 -37 31 -44 67 -123 86 -187 29 -95 25
-258 -8 -360 -15 -44 -40 -102 -57 -129 -17 -26 -28 -51 -25 -54 6 -7 46 34
49 51 1 7 8 22 15 35 38 70 73 224 66 297 -11 125 -19 164 -45 228 -16 37 -26
67 -22 67 4 0 2 4 -4 8 -6 4 -23 26 -38 50 -27 43 -36 51 -36 31z"/>
<path d="M355 1348 c-4 -10 -16 -18 -26 -18 -21 0 -26 -16 -8 -22 9 -3 9 -10
0 -26 -12 -22 1 -32 14 -11 5 7 14 4 26 -7 18 -16 19 -16 19 5 0 12 7 24 15
27 20 8 19 24 0 24 -9 0 -20 10 -24 23 -8 19 -10 20 -16 5z m15 -43 c0 -8 -7
-15 -15 -15 -16 0 -20 12 -8 23 11 12 23 8 23 -8z"/>
<path d="M1830 1343 c0 -16 -6 -23 -20 -23 -23 0 -27 -15 -5 -24 8 -3 15 -15
15 -27 0 -20 1 -21 18 -6 12 11 22 13 35 6 19 -11 23 1 5 19 -8 8 -8 15 2 27
10 12 10 15 -5 15 -10 0 -24 8 -31 18 -12 16 -13 15 -14 -5z m28 -42 c3 -8 -1
-12 -9 -9 -7 2 -15 10 -17 17 -3 8 1 12 9 9 7 -2 15 -10 17 -17z"/>
<path d="M326 1153 c-5 -16 -15 -23 -32 -23 -28 0 -31 -12 -8 -31 10 -8 13
-21 9 -37 -6 -24 -5 -25 17 -10 20 14 25 14 45 1 22 -15 23 -15 17 16 -5 23
-2 32 10 37 24 9 19 24 -7 24 -15 0 -28 8 -34 23 l-10 22 -7 -22z m28 -41 c2
-4 2 -13 -2 -18 -9 -13 -45 -27 -37 -15 3 5 0 13 -6 17 -8 4 -7 9 2 15 18 11
36 11 43 1z"/>
<path d="M1856 1153 c-5 -16 -15 -23 -32 -23 -27 0 -32 -15 -8 -24 12 -5 15
-14 10 -37 -6 -31 -5 -31 17 -16 20 13 25 13 45 -1 21 -14 22 -14 16 15 -4 22
-2 32 10 36 16 6 23 28 9 26 -25 -4 -41 4 -50 24 l-10 22 -7 -22z m27 -59 c-3
-8 -11 -14 -18 -14 -18 0 -26 25 -12 39 14 14 38 -5 30 -25z"/>
<path d="M340 944 c0 -14 -8 -24 -22 -28 -21 -6 -21 -7 -5 -17 9 -5 17 -19 17
-31 0 -17 3 -18 15 -8 8 6 23 9 35 5 19 -6 21 -5 11 13 -7 14 -8 23 -1 27 16
10 12 25 -6 25 -9 0 -23 8 -30 18 -12 16 -13 16 -14 -4z m30 -45 c0 -5 -7 -9
-15 -9 -15 0 -20 12 -9 23 8 8 24 -1 24 -14z"/>
<path d="M1837 936 c-4 -9 -14 -12 -29 -9 -22 6 -22 5 -6 -13 12 -14 14 -24 6
-38 -9 -16 -7 -17 11 -11 13 4 28 1 36 -5 12 -10 15 -9 15 8 0 12 7 25 17 30
14 9 14 10 -5 16 -12 4 -22 14 -22 22 0 18 -16 18 -23 0z m23 -37 c0 -5 -7 -9
-15 -9 -15 0 -20 12 -9 23 8 8 24 -1 24 -14z"/>
<path d="M123 431 c-34 -20 -63 -38 -63 -41 0 -3 28 -16 63 -30 l62 -25 3 -73
c2 -39 5 -72 7 -72 2 0 28 14 57 32 29 18 54 33 56 34 4 2 -112 213 -118 213
-3 -1 -33 -17 -67 -38z m80 -18 c4 -10 22 -45 41 -78 36 -63 35 -85 -6 -85
-12 0 -17 -4 -12 -12 4 -7 3 -8 -4 -4 -7 4 -12 27 -12 51 0 47 -12 66 -60 87
-30 13 -44 46 -14 34 8 -3 12 -2 9 3 -5 9 12 17 41 20 7 0 14 -7 17 -16z"/>
<path d="M1942 365 l-60 -105 52 -32 c28 -18 54 -34 58 -36 4 -2 8 29 10 68
l3 72 62 26 c35 15 63 30 63 33 0 3 -10 11 -22 17 -13 6 -42 22 -64 36 l-41
26 -61 -105z m116 52 c21 -16 13 -36 -20 -50 -46 -20 -56 -36 -59 -94 l-2 -51
-23 16 c-13 10 -24 21 -24 25 0 5 -4 5 -10 2 -5 -3 -10 -1 -10 5 0 6 6 13 14
16 8 3 16 19 20 36 4 21 10 28 20 25 10 -4 13 -1 10 7 -3 7 4 29 16 49 21 36
36 39 68 14z"/>
<path d="M724 289 c149 -77 394 -102 574 -59 101 24 245 83 218 88 -10 2 -28
-1 -40 -6 -21 -10 -57 -24 -66 -26 -3 -1 -10 -4 -16 -8 -14 -9 -86 -27 -149
-38 -117 -20 -347 -5 -407 26 -15 8 -28 12 -28 9 0 -4 -15 2 -32 11 -61 31
-68 34 -90 34 -16 -1 -6 -10 36 -31z"/>
<path d="M607 303 c-13 -12 -7 -24 9 -21 10 2 19 -3 21 -9 3 -8 -4 -13 -16
-13 -12 0 -21 5 -21 10 0 15 -42 11 -70 -6 -14 -9 -17 -13 -6 -10 10 4 36 1
57 -6 28 -8 46 -8 62 -1 17 8 29 7 47 -2 23 -12 23 -12 -13 -24 -19 -7 -41
-19 -49 -28 -12 -14 -11 -15 8 -5 15 8 32 8 58 1 31 -9 41 -8 56 6 15 13 25
15 47 8 l28 -10 -31 -16 c-17 -9 -37 -23 -45 -33 -13 -16 -12 -16 10 -5 13 8
39 11 58 8 25 -4 38 -1 51 13 12 13 26 17 45 13 l28 -5 -41 -30 c-22 -16 -40
-35 -40 -40 0 -6 8 -4 18 5 10 10 34 17 52 17 20 0 42 8 55 20 19 18 28 20 66
11 29 -7 59 -7 88 0 38 9 47 7 66 -11 13 -12 35 -20 58 -20 20 0 39 -5 42 -10
3 -6 12 -10 18 -10 7 1 -5 16 -26 34 -37 33 -37 34 -13 38 15 3 31 -1 40 -10
10 -10 30 -15 57 -14 22 2 47 -2 55 -9 8 -6 14 -7 14 -2 0 5 -19 20 -42 33
l-42 24 28 7 c19 5 36 3 50 -6 17 -11 30 -12 55 -5 22 6 40 6 52 -1 11 -5 19
-6 19 -1 0 5 -19 17 -42 28 -31 14 -43 15 -46 6 -2 -6 -10 -12 -18 -12 -26 0
-14 15 27 32 32 13 45 15 59 6 14 -9 28 -9 58 0 22 7 48 9 58 5 11 -4 15 -3
10 5 -11 18 -74 26 -92 12 -11 -10 -18 -10 -26 -2 -12 12 -10 13 12 16 11 1
14 21 3 20 -5 0 -43 -17 -86 -38 -108 -52 -212 -77 -344 -83 -172 -9 -311 20
-460 96 -69 34 -67 34 -76 24z m143 -83 c0 -5 -9 -10 -21 -10 -11 0 -17 5 -14
10 3 6 13 10 21 10 8 0 14 -4 14 -10z m105 -40 c3 -5 -3 -10 -15 -10 -12 0
-18 5 -15 10 3 6 10 10 15 10 5 0 12 -4 15 -10z m510 0 c3 -5 -1 -10 -9 -10
-9 0 -16 5 -16 10 0 6 4 10 9 10 6 0 13 -4 16 -10z m-120 -19 c3 -5 1 -12 -4
-15 -5 -3 -11 1 -15 9 -6 16 9 21 19 6z m-280 -11 c-3 -5 -11 -10 -16 -10 -6
0 -7 5 -4 10 3 6 11 10 16 10 6 0 7 -4 4 -10z"/>
</g>
</svg>
